#!OML:ASF F:\VICON\USERDATA\INSTALL\rory3\rory3.ASF
:FULLY-SPECIFIED
:DEGREES
184
root -0.195396 17.862 5.32928 -0.440934 -4.20496 -7.75866
lowerback 10.3047 2.05724 6.88917
upperback 0.615839 3.66714 2.59331
thorax -4.87826 1.68211 -1.66861
lowerneck -16.7284 -3.46867 -1.03051
upperneck 20.7175 -4.66639 0.505879
head 9.325 -2.19918 -0.254433
rclavicle -1.3654e-014 1.49089e-014
rhumerus -18.0979 -5.48061 -83.061
rradius 34.1371
rwrist -2.97721
rhand -19.5887 25.0672
rfingers 7.12502
rthumb 6.73683 -4.80558
lclavicle -1.3654e-014 1.49089e-014
lhumerus -37.7032 -0.139451 85.8958
lradius 30.5115
lwrist 7.82687
lhand -29.2259 22.6088
lfingers 7.12502
lthumb -2.56986 52.5731
rfemur 5.26032 7.24991 35.344
rtibia 24.2246
rfoot -20.9139 -9.51194
rtoes 1.155
lfemur -27.7107 -5.10737 -8.39846
ltibia 17.6647
lfoot -6.21604 8.33878
ltoes -2.34276
185
root -0.183315 17.857 5.52007 -0.434637 -4.45702 -7.71345
lowerback 10.3432 2.18424 6.89119
upperback 0.603029 3.8374 2.54157
thorax -4.89664 1.7644 -1.74835
lowerneck -16.7319 -3.5296 -1.08294
upperneck 20.6843 -4.7719 0.655921
head 9.32051 -2.23569 -0.207802
rclavicle -4.96837e-014 -5.08889e-014
rhumerus -17.9736 -5.48282 -83.0629
rradius 34.3329
rwrist -2.96294
rhand -19.7995 25.4037
rfingers 7.12502
rthumb 6.53335 -4.47548
lclavicle -4.96837e-014 -5.08889e-014
lhumerus -37.9192 0.0744713 85.8727
lradius 30.2401
lwrist 6.94593
lhand -29.4707 21.8144
lfingers 7.12502
lthumb -2.80632 51.7757
rfemur 6.11871 7.30543 35.2421
rtibia 23.8988
rfoot -21.0561 -9.39275
rtoes 0.973351
lfemur -27.1177 -6.54769 -7.82977
ltibia 15.2929
lfoot -6.24237 9.77328
ltoes -1.63394
186
root -0.166702 17.837 5.70768 -0.414258 -4.48477 -7.46418
lowerback 10.2919 2.22316 6.67699
upperback 0.617423 3.85466 2.4646
thorax -4.85946 1.7786 -1.70954
lowerneck -16.5591 -3.47189 -0.937774
upperneck 20.3635 -4.7192 0.630043
head 9.17234 -2.20672 -0.226552
rclavicle 1.72943e-014 -7.45443e-015
rhumerus -17.861 -5.35078 -83.0887
rradius 34.716
rwrist -2.9472
rhand -20.0324 25.4405
rfingers 7.12502
rthumb 6.30857 -4.44554
lclavicle 1.72943e-014 -7.45443e-015
lhumerus -37.9473 0.468159 85.7513
lradius 30.0367
lwrist 6.88771
lhand -28.7564 22.219
lfingers 7.12502
lthumb -2.11649 52.1883
rfemur 6.87562 7.18375 34.9163
rtibia 23.6819
rfoot -20.8046 -9.75226
rtoes 0.898772
lfemur -26.6076 -8.05278 -7.56393
ltibia 13.2186
lfoot -5.93237 11.1903
ltoes -2.94488
187
root -0.147568 17.813 5.88624 -0.290943 -4.52799 -7.41869
lowerback 10.3147 2.23967 6.66092
upperback 0.537674 3.8816 2.45736
thorax -4.95502 1.78745 -1.71505
lowerneck -16.4092 -3.37551 -0.830784
upperneck 20.2013 -4.59542 0.561065
head 9.08324 -2.15078 -0.247108
rclavicle 4.1869e-015 -5.36719e-015
rhumerus -17.9096 -5.28182 -83.0763
rradius 35.2059
rwrist -2.89022
rhand -20.1912 25.5773
rfingers 7.12502
rthumb 6.15522 -4.31332
lclavicle 4.1869e-015 -5.36719e-015
lhumerus -38.0622 0.731127 85.7057
lradius 29.7621
lwrist 7.39575
lhand -28.334 20.6432
lfingers 7.12502
lthumb -1.70848 50.6161
rfemur 7.36374 7.24011 34.8345
rtibia 23.7449
rfoot -20.4886 -10.1786
rtoes 1.32281
lfemur -26.3855 -7.85014 -7.7136
ltibia 11.9329
lfoot -5.95077 11.1355
ltoes -5.84759
188
root -0.130118 17.7945 6.07704 -0.218588 -4.46614 -7.25797
lowerback 10.1353 2.22953 6.50048
upperback 0.5676 3.8309 2.43768
thorax -4.83537 1.77073 -1.63034
lowerneck -16.5913 -3.36753 -0.819672
upperneck 20.2949 -4.57949 0.525024
head 9.14752 -2.14443 -0.263708
rclavicle 3.12962e-014 1.25234e-014
rhumerus -17.7747 -5.31313 -83.0603
rradius 35.3894
rwrist -2.80468
rhand -20.232 25.5672
rfingers 7.12502
rthumb 6.11581 -4.3245
lclavicle 3.12962e-014 1.25234e-014
lhumerus -38.0564 0.877184 85.7384
lradius 29.6119
lwrist 7.23362
lhand -27.6218 21.1154
lfingers 7.12502
lthumb -1.02065 51.0927
rfemur 7.7739 7.1939 34.5907
rtibia 24.1037
rfoot -20.9494 -9.65145
rtoes 0.757345
lfemur -26.3378 -7.03698 -8.36361
ltibia 11.632
lfoot -6.68599 10.4747
ltoes -7.12278
189
root -0.11294 17.7753 6.27639 -0.12855 -4.43876 -7.11219
lowerback 9.81591 2.26984 6.44358
upperback 0.634761 3.84159 2.35472
thorax -4.58257 1.78632 -1.66864
lowerneck -16.7514 -3.44867 -0.83079
upperneck 20.3012 -4.70833 0.611408
head 9.18253 -2.19457 -0.252013
rclavicle -2.75814e-014 -1.23246e-014
rhumerus -17.5391 -5.6105 -83.0631
rradius 35.3686
rwrist -2.65908
rhand -20.281 25.5983
rfingers 7.12502
rthumb 6.06849 -4.29475
lclavicle -2.75814e-014 -1.23246e-014
lhumerus -38.0533 1.10638 85.6121
lradius 29.6108
lwrist 6.46919
lhand -26.6867 24.3184
lfingers 7.12502
lthumb -0.11747 54.2981
rfemur 8.1369 7.20128 34.3559
rtibia 24.5054
rfoot -21.2791 -9.00213
rtoes -1.64063
lfemur -26.3413 -6.3074 -9.00047
ltibia 11.7892
lfoot -7.29636 9.67392
ltoes -6.45277
190
root -0.0940383 17.7406 6.46356 -0.0728422 -4.52655 -7.1838
lowerback 9.963 2.33442 6.63555
upperback 0.504571 3.96742 2.31182
thorax -4.77725 1.83477 -1.84648
lowerneck -16.754 -3.49533 -0.928716
upperneck 20.4322 -4.78589 0.765761
head 9.236 -2.21973 -0.194831
rclavicle -2.64881e-014 -1.72943e-014
rhumerus -17.5768 -5.76913 -83.0072
rradius 35.3061
rwrist -2.78461
rhand -20.3868 26.0499
rfingers 7.12502
rthumb 5.9664 -3.84614
lclavicle -2.64881e-014 -1.72943e-014
lhumerus -38.2728 1.15237 85.5316
lradius 29.2936
lwrist 6.12926
lhand -26.3967 26.6479
lfingers 7.12502
lthumb 0.162557 56.6276
rfemur 8.48669 7.39503 34.3842
rtibia 24.9573
rfoot -21.1759 -8.64815
rtoes -3.65738
lfemur -26.4987 -5.3873 -9.44382
ltibia 12.524
lfoot -7.20759 8.51232
ltoes -4.45516
191
root -0.0793493 17.7362 6.64168 -0.0442078 -4.40381 -7.17006
lowerback 10.3028 2.31153 6.62344
upperback 0.279343 3.98053 2.31061
thorax -5.20568 1.82235 -1.86705
lowerneck -16.6334 -3.48686 -0.977567
upperneck 20.5525 -4.77272 0.799343
head 9.2578 -2.21341 -0.172697
rclavicle 3.52594e-014 -1.82882e-014
rhumerus -17.6463 -5.90094 -82.9376
rradius 35.1063
rwrist -2.98386
rhand -20.4175 26.3316
rfingers 7.12502
rthumb 5.93671 -3.56524
lclavicle 3.52594e-014 -1.82882e-014
lhumerus -38.5122 1.31772 85.5142
lradius 28.5985
lwrist 5.80541
lhand -26.7174 26.3784
lfingers 7.12502
lthumb -0.147164 56.3581
rfemur 8.77838 7.43141 34.3577
rtibia 25.5117
rfoot -20.742 -8.30701
rtoes -4.27083
lfemur -26.8298 -4.00702 -10.2465
ltibia 13.7893
lfoot -6.49809 6.77504
ltoes -2.69183
192
root -0.065776 17.7204 6.83396 -0.104246 -4.17724 -7.14844
lowerback 10.4095 2.22086 6.51398
upperback 0.208631 3.86602 2.38921
thorax -5.36196 1.76317 -1.71635
lowerneck -16.6321 -3.4505 -0.96313
upperneck 20.702 -4.70175 0.682055
head 9.30532 -2.19109 -0.207691
rclavicle -3.98191e-014 -2.5842e-014
rhumerus -17.64 -5.83624 -82.8635
rradius 35.0045
rwrist -3.10265
rhand -20.1986 25.7718
rfingers 7.12502
rthumb 6.1481 -4.11895
lclavicle -3.98191e-014 -2.5842e-014
lhumerus -38.7646 1.47911 85.6116
lradius 28.0438
lwrist 5.20953
lhand -27.6176 26.1178
lfingers 7.12502
lthumb -1.01657 56.0951
rfemur 9.14025 7.45048 34.4016
rtibia 26.2417
rfoot -21.0529 -8.45322
rtoes -6.28394
lfemur -27.0784 -2.95331 -11.0264
ltibia 15.2836
lfoot -6.13865 5.56712
ltoes -1.41444
193
root -0.0504705 17.6946 7.043 -0.189356 -3.81547 -7.05256
lowerback 10.1528 2.08445 6.35411
upperback 0.278212 3.64203 2.43196
thorax -5.1729 1.66551 -1.53862
lowerneck -16.5763 -3.43367 -0.894328
upperneck 20.6834 -4.67888 0.605268
head 9.28445 -2.18431 -0.241011
rclavicle -1.06226e-014 -9.54166e-015
rhumerus -17.6095 -5.95051 -82.8316
rradius 34.9318
rwrist -2.87627
rhand -19.8715 25.1931
rfingers 7.12502
rthumb 6.46384 -4.68821
lclavicle -1.06226e-014 -9.54166e-015
lhumerus -38.8419 1.79198 85.5396
lradius 27.8012
lwrist 4.33717
lhand -27.3962 27.8183
lfingers 7.12502
lthumb -0.802731 57.7965
rfemur 9.52533 7.37409 34.3766
rtibia 27.022
rfoot -20.6061 -8.20355
rtoes -6.29599
lfemur -27.1868 -2.51147 -11.7115
ltibia 16.7175
lfoot -6.19293 4.59133
ltoes -0.575626
194
root -0.0326312 17.6706 7.2513 -0.329873 -3.5391 -6.9594
lowerback 10.0122 2.02662 6.2803
upperback 0.306019 3.54209 2.41245
thorax -5.07442 1.62182 -1.49762
lowerneck -16.2914 -3.47906 -0.778271
upperneck 20.4605 -4.74775 0.50952
head 9.14951 -2.22216 -0.293262
rclavicle 3.59303e-014 9.74045e-015
rhumerus -17.909 -6.38925 -82.7837
rradius 35.1099
rwrist -2.60048
rhand -19.9612 25.1738
rfingers 7.12502
rthumb 6.37729 -4.71018
lclavicle 3.59303e-014 9.74045e-015
lhumerus -38.8648 1.97507 85.4009
lradius 27.7212
lwrist 3.27449
lhand -25.7766 31.3307
lfingers 7.12502
lthumb 0.761472 61.3091
rfemur 9.89286 7.32149 34.3359
rtibia 27.8752
rfoot -20.2392 -7.94975
rtoes -6.60811
lfemur -27.2376 -2.39418 -12.2357
ltibia 18.3066
lfoot -6.33539 3.45151
ltoes -0.551689
195
root -0.0105159 17.6523 7.45488 -0.44694 -3.50757 -7.02646
lowerback 9.99771 2.0673 6.44077
upperback 0.384073 3.60826 2.41683
thorax -4.97012 1.65522 -1.5881
lowerneck -16.5627 -3.55198 -0.853088
upperneck 20.5255 -4.84918 0.59731
head 9.22696 -2.26288 -0.270155
rclavicle 5.49267e-014 3.89618e-014
rhumerus -18.1582 -7.12952 -82.6641
rradius 35.2224
rwrist -2.20992
rhand -20.0683 25.6961
rfingers 7.12502
rthumb 6.27391 -4.19101
lclavicle 5.49267e-014 3.89618e-014
lhumerus -38.6017 2.15159 85.3406
lradius 26.7295
lwrist 3.77457
lhand -26.8797 25.3133
lfingers 7.12502
lthumb -0.303934 55.2929
rfemur 10.2397 7.30731 34.3822
rtibia 28.6457
rfoot -19.6079 -7.85433
rtoes -8.25555
lfemur -27.1984 -2.13517 -12.5481
ltibia 19.7167
lfoot -6.50137 1.8465
ltoes -1.0028
196
root 0.0148694 17.6549 7.66752 -0.576367 -3.5818 -6.98768
lowerback 9.97337 2.14449 6.53762
upperback 0.460217 3.71213 2.37165
thorax -4.85963 1.70859 -1.6992
lowerneck -16.8647 -3.65254 -0.994886
upperneck 20.6578 -4.99965 0.801061
head 9.33951 -2.31746 -0.204384
rclavicle -1.63873e-014 -3.00165e-014
rhumerus -18.3001 -7.78551 -82.5504
rradius 35.0284
rwrist -1.92351
rhand -20.0304 26.3074
rfingers 7.12502
rthumb 6.31047 -3.57857
lclavicle -1.63873e-014 -3.00165e-014
lhumerus -38.2534 2.39623 85.1703
lradius 25.8634
lwrist 3.38012
lhand -26.9226 24.1649
lfingers 7.12502
lthumb -0.345354 54.1444
rfemur 10.6066 7.14514 34.1942
rtibia 29.3983
rfoot -18.929 -7.53997
rtoes -9.43279
lfemur -27.0599 -2.19757 -12.8425
ltibia 20.9086
lfoot -5.86306 0.356743
ltoes -1.23514
197
root 0.0461341 17.6812 7.9008 -0.693623 -3.53142 -6.71637
lowerback 9.84593 2.187 6.47332
upperback 0.410748 3.74654 2.23998
thorax -4.83255 1.72591 -1.80023
lowerneck -16.816 -3.72242 -1.04038
upperneck 20.8412 -5.12401 0.94463
head 9.40137 -2.36112 -0.165139
rclavicle 2.09966e-014 1.98785e-014
rhumerus -18.6492 -8.21723 -82.4483
rradius 34.865
rwrist -2.00717
rhand -19.814 25.8916
rfingers 7.12502
rthumb 6.51939 -3.98805
lclavicle 2.09966e-014 1.98785e-014
lhumerus -38.267 2.45129 85.028
lradius 25.1073
lwrist 3.06832
lhand -27.2745 23.7407
lfingers 7.12502
lthumb -0.685176 53.7194
rfemur 10.93 6.8098 33.6671
rtibia 30.3046
rfoot -18.287 -7.10623
rtoes -11.3931
lfemur -26.9704 -2.82959 -13.1681
ltibia 22.0393
lfoot -4.51177 -0.987595
ltoes 1.74851
